<svg id="_x31__px" height="512" viewBox="0 0 24 24" width="512" xmlns="http://www.w3.org/2000/svg"><path d="m17.5 24c-3.584 0-6.5-2.916-6.5-6.5s2.916-6.5 6.5-6.5 6.5 2.916 6.5 6.5-2.916 6.5-6.5 6.5zm0-12c-3.033 0-5.5 2.467-5.5 5.5s2.467 5.5 5.5 5.5 5.5-2.467 5.5-5.5-2.467-5.5-5.5-5.5z"/><path d="m17.5 21c-.276 0-.5-.224-.5-.5v-6c0-.276.224-.5.5-.5s.5.224.5.5v6c0 .276-.224.5-.5.5z"/><path d="m20.5 18h-6c-.276 0-.5-.224-.5-.5s.224-.5.5-.5h6c.276 0 .5.224.5.5s-.224.5-.5.5z"/><path d="m8.5 18h-7c-.827 0-1.5-.673-1.5-1.5 0-.089.01-.167.023-.255l3.007-15.043c.136-.696.754-1.202 1.47-1.202h11c.716 0 1.334.506 1.471 1.204l1.54 7.698c.054.271-.122.534-.392.588-.275.058-.534-.121-.588-.392l-1.54-7.7c-.047-.231-.252-.398-.491-.398h-11c-.239 0-.444.167-.489.396l-3 15.002c-.005.03-.011.063-.011.102 0 .276.224.5.5.5h7c.276 0 .5.224.5.5s-.224.5-.5.5z"/><path d="m22.22 10.5c-.233 0-.442-.164-.49-.402l-1.74-8.7c-.046-.231-.251-.398-.49-.398h-4c-.276 0-.5-.224-.5-.5s.224-.5.5-.5h4c.716 0 1.334.506 1.471 1.204l1.74 8.698c.054.271-.122.534-.392.588-.034.007-.067.01-.099.01z"/><path d="m10 9c-2.206 0-4-1.794-4-4v-2.5c0-.276.224-.5.5-.5s.5.224.5.5v2.5c0 1.654 1.346 3 3 3s3-1.346 3-3v-2.5c0-.276.224-.5.5-.5s.5.224.5.5v2.5c0 2.206-1.794 4-4 4z"/></svg>