<svg id="Capa_1" fill-opacity="0.25" enable-background="new 0 0 512 512" height="512" viewBox="0 0 512 512" width="512" xmlns="http://www.w3.org/2000/svg"><g><path d="m256 205.773c-8.396 0-16.311 2.081-23.274 5.739l67.762 67.762c3.658-6.963 5.739-14.878 5.739-23.274 0-27.695-22.532-50.227-50.227-50.227z"/><path d="m173.838 152.625h11.608l20.125-32.125h100.857l20.125 32.125h95.071v225.812h-21.974l47.659 47.659c41.817-46.909 64.691-106.741 64.691-170.096 0-68.38-26.629-132.667-74.98-181.02-48.353-48.351-112.64-74.98-181.02-74.98-63.355 0-123.187 22.874-170.097 64.69z"/><path d="m256 306.227c8.396 0 16.311-2.081 23.274-5.739l-67.762-67.762c-3.658 6.963-5.739 14.878-5.739 23.274 0 27.695 22.532 50.227 50.227 50.227z"/><path d="m120.375 348.438h206.85l-26.126-26.126c-12.861 8.775-28.389 13.915-45.098 13.915-44.237 0-80.227-35.99-80.227-80.227 0-16.709 5.141-32.238 13.915-45.098l-28.277-28.277h-41.037z"/><path d="m357.225 378.438h-266.85v-225.813h41.037l-66.722-66.722c-41.816 46.91-64.69 106.742-64.69 170.097 0 68.38 26.629 132.667 74.98 181.02 48.353 48.351 112.64 74.98 181.02 74.98 63.355 0 123.187-22.874 170.097-64.69z"/><path d="m391.625 182.625h-81.679l-20.125-32.125h-67.643l-19.438 31.028 8.161 8.161c12.861-8.775 28.389-13.915 45.098-13.915 44.237 0 80.227 35.99 80.227 80.227 0 16.709-5.141 32.238-13.915 45.098l47.339 47.339h21.975z"/></g></svg>