<svg id="_x31__px" height="512" viewBox="0 0 24 24" width="512" xmlns="http://www.w3.org/2000/svg"><path d="m18.5 21h-17c-.827 0-1.5-.673-1.5-1.5 0-.089.01-.167.023-.255l3.007-15.043c.136-.696.754-1.202 1.47-1.202h11c.716 0 1.334.506 1.471 1.204l3 14.998c.019.131.029.209.029.298 0 .827-.673 1.5-1.5 1.5zm-14-17c-.239 0-.444.167-.489.396l-3 15.002c-.005.03-.011.063-.011.102 0 .276.224.5.5.5h17c.276 0 .5-.224.5-.5 0-.039-.006-.072-.012-.11l-2.998-14.992c-.046-.231-.251-.398-.49-.398z"/><path d="m22.5 21h-4c-.276 0-.5-.224-.5-.5s.224-.5.5-.5h4c.276 0 .5-.224.5-.5 0-.039-.006-.072-.012-.11l-2.998-14.992c-.046-.231-.251-.398-.49-.398h-4c-.276 0-.5-.224-.5-.5s.224-.5.5-.5h4c.716 0 1.334.506 1.471 1.204l3 14.998c.019.131.029.209.029.298 0 .827-.673 1.5-1.5 1.5z"/><path d="m10 12c-2.206 0-4-1.794-4-4v-2.5c0-.276.224-.5.5-.5s.5.224.5.5v2.5c0 1.654 1.346 3 3 3s3-1.346 3-3v-2.5c0-.276.224-.5.5-.5s.5.224.5.5v2.5c0 2.206-1.794 4-4 4z"/></svg>