<svg id="Capa_1" enable-background="new 0 0 512 512" height="512" viewBox="0 0 512 512" width="512" xmlns="http://www.w3.org/2000/svg"><g><ellipse cx="227.05" cy="92.108" rx="10" ry="10" transform="matrix(.065 -.998 .998 .065 120.485 312.742)"/><ellipse cx="456.863" cy="223.722" rx="10" ry="10" transform="matrix(.677 -.736 .736 .677 -17.13 408.4)"/><path d="m54.681 213.063c-5.518.229-9.806 4.888-9.576 10.406.229 5.518 4.888 9.806 10.406 9.577s9.806-4.888 9.576-10.406c-.229-5.519-4.888-9.806-10.406-9.577z"/><path d="m510.994 229.984-69.569-143.501c-2.414-4.979-8.408-7.059-13.387-4.645l-64.712 31.372c-2.391 1.159-4.224 3.221-5.095 5.731-.234.674-.387 1.366-.473 2.064h-52.756l-29.453-22.384c-4.406-3.348-10.691-2.491-14.04 1.915-3.348 4.406-2.491 10.692 1.915 14.04l63.656 48.376c2.692 2.251 4.922 5.227 5.389 8.788.451 3.444-.806 6.884-2.753 9.684-4.479 6.442-12.935 9.036-19.937 4.925l-51.416-30.139c-3.989-2.338-8.922-1.596-12.072 1.492l-149.475 84.945 46.081-119.366c18.075-13.657 39.013-15.369 39.71-15.415 5.49-.05 9.925-4.517 9.925-10.019 0-5.534-4.486-10.02-10.02-10.02-5.488 0-28.766 3.157-49.569 17.913l-61.881-23.888c-5.165-1.994-10.964.577-12.956 5.739l-57.434 148.774c-.957 2.479-.89 5.237.186 7.666 1.076 2.43 3.073 4.333 5.552 5.29l57.864 22.338c-2.596 8.238-2.021 17.019 1.662 24.877 5.66 12.131 17.74 19.8 31.061 19.838-.482 2.463-.704 4.968-.611 7.482.157 4.253 1.144 8.351 2.934 12.184 5.619 12.008 18.109 18.892 31.655 18.891.065 0 .13-.005.195-.005-.89 6.493.092 13.114 2.938 19.199 4.28 9.126 12.308 15.897 22.017 18.576 3.809 1.054 7.781 1.435 11.721 1.139-.507 5.979.596 12.042 3.138 17.475 2.986 6.399 7.792 11.661 13.876 15.208 9.627 5.654 21.672 6.162 31.767 1.442l64.935-30.846 9 9.817c6.693 7.301 15.863 11.004 25.064 11.004 8.206 0 16.437-2.948 22.949-8.917 6.94-6.362 10.627-14.965 10.974-23.702.048.002.095.008.142.01.505.022 1.008.033 1.51.033 8.518 0 16.61-3.141 22.928-8.933 6.599-6.05 10.478-14.278 10.962-23.203.38.012.76.025 1.139.025 8.518 0 16.61-3.141 22.928-8.933 6.691-6.134 10.593-14.506 10.987-23.575.002-.042.001-.084.002-.126.042.002.084.007.126.009.505.022 1.008.033 1.511.033 8.518 0 16.609-3.141 22.927-8.933 6.691-6.134 10.593-14.506 10.988-23.575.279-6.43-1.237-12.661-4.325-18.13l54.971-26.65c4.983-2.416 7.063-8.409 4.649-13.389zm-437.802-125.829 48.396 18.683-50.217 130.08-48.396-18.683zm134.894 305.682c-7.176 3.356-15.846-.073-19.048-7.236-1.69-3.78-1.679-8.158.053-11.923 1.633-3.551 4.323-5.383 7.581-7.261l41.527-23.995c4.67-2.696 6.354-8.847 3.735-13.547-2.619-4.701-8.73-6.507-13.482-3.959l-57.304 30.721c-7.238 3.235-15.991-.167-19.095-7.468-1.59-3.739-1.516-8.022.195-11.708 1.631-3.513 4.318-5.45 7.587-7.275l58.025-32.512c4.729-2.649 6.483-8.816 3.882-13.56-2.603-4.748-8.761-6.57-13.531-4.002l-68.338 36.805c-5.928 2.695-13.71 3.068-19.049-1.165-5.575-4.419-5.373-12.092-1.644-17.629 2.392-3.553 5.663-5.611 9.328-7.628l68.33-37.534c4.739-2.604 6.552-8.735 4.01-13.497-2.541-4.761-8.649-6.668-13.447-4.179l-84.39 43.768c-7.004 3.203-15.485.078-18.832-6.819-1.848-3.807-1.919-8.279-.192-12.143 1.63-3.647 4.376-5.595 7.727-7.494l161.844-91.974 46.081 27.012c12.3 7.22 28.276 6.042 39.346-2.955 10.36-8.42 16.064-22.444 12.56-35.578-1.881-7.048-6.375-13.552-12.171-17.974l-8.003-6.082h34.315l37.755 77.878c-4.583-2.574-9.735-4.064-15.14-4.298-9.065-.392-17.747 2.767-24.439 8.901-4.572 4.191-7.839 9.427-9.577 15.216-3.667-1.541-7.615-2.439-11.708-2.617-9.072-.395-17.747 2.767-24.439 8.901s-10.593 14.506-10.987 23.575c-.257 5.907 1.004 11.645 3.603 16.78-4.854 1.451-9.356 3.989-13.201 7.514-6.691 6.134-10.593 14.506-10.987 23.575-.35 8.041 2.102 15.773 6.937 22.087-4.611 1.442-8.985 3.886-12.776 7.361-9.702 8.894-13.041 22.165-9.788 34.064zm116.949-15.586c-5.667 5.195-14.505 4.811-19.701-.856l-11.923-13.006c-5.196-5.667-4.811-14.505.856-19.701 2.672-2.45 6.049-3.659 9.417-3.659 3.775 0 7.538 1.52 10.284 4.515l11.923 13.007c5.196 5.667 4.811 14.505-.856 19.7zm35.555-32.593c-5.668 5.196-14.506 4.811-19.701-.856l-30.651-33.436c-4.328-4.721-4.845-12.035-1.217-17.317 4.267-6.212 12.988-7.891 19.249-3.682 0 0 34.18 37.215 34.863 37.849 1.397 2.322 2.086 5 1.966 7.769-.162 3.721-1.764 7.156-4.509 9.673zm35.029-32.112c-2.746 2.518-6.324 3.812-10.028 3.653-2.769-.12-5.378-1.04-7.569-2.633-.572-.735-47.199-51.068-47.199-51.068-5.13-5.597-4.755-14.573.856-19.701 5.613-5.129 14.558-4.755 19.701.856l45.095 49.193c2.517 2.746 3.814 6.307 3.653 10.028-.162 3.721-1.763 7.156-4.509 9.672zm35.555-32.593c-5.604 5.136-14.566 4.745-19.7-.856l-34.926-38.1c-5.131-5.597-4.755-14.573.856-19.7 5.613-5.129 14.558-4.755 19.7.856l34.927 38.101c5.136 5.602 4.746 14.564-.857 19.699zm10.737-44.613-60.827-125.469 46.68-22.63 60.827 125.469z"/></g></svg>