<svg id="_x31_px" enable-background="new 0 0 24 24" height="512" viewBox="0 0 24 24" width="512" xmlns="http://www.w3.org/2000/svg"><path d="m9 10c-2.757 0-5-2.243-5-5s2.243-5 5-5 5 2.243 5 5-2.243 5-5 5zm0-9c-2.206 0-4 1.794-4 4s1.794 4 4 4 4-1.794 4-4-1.794-4-4-4z"/><path d="m9.5 21h-9c-.276 0-.5-.224-.5-.5v-4c0-2.481 2.019-4.5 4.5-4.5h6c.276 0 .5.224.5.5s-.224.5-.5.5h-6c-1.93 0-3.5 1.57-3.5 3.5v3.5h8.5c.276 0 .5.224.5.5s-.224.5-.5.5z"/><path d="m18 17c-.058 0-.116-.01-.171-.03l-5.5-2c-.198-.072-.329-.26-.329-.47s.131-.398.329-.47l5.5-2c.11-.04.231-.04.342 0l5.5 2c.198.072.329.26.329.47s-.131.398-.329.47l-5.5 2c-.055.02-.113.03-.171.03zm-4.037-2.5 4.037 1.468 4.037-1.468-4.037-1.468z"/><path d="m18 24c-.058 0-.116-.01-.171-.03l-5.5-2c-.198-.072-.329-.26-.329-.47v-7c0-.276.224-.5.5-.5s.5.224.5.5v6.65l5 1.818 5-1.818v-6.65c0-.276.224-.5.5-.5s.5.224.5.5v7c0 .21-.131.398-.329.47l-5.5 2c-.055.02-.113.03-.171.03z"/><path d="m18 24c-.276 0-.5-.224-.5-.5v-7c0-.276.224-.5.5-.5s.5.224.5.5v7c0 .276-.224.5-.5.5z"/></svg>